<?xml version="1.0" encoding="UTF-8"?><svg id="a" xmlns="http://www.w3.org/2000/svg" viewBox="0 0 1991.4924 704.1033"><g id="b"><g id="c"><polygon points="1886.5873 539.5182 1533.6618 0 1634.776 299.8986 1312.1452 564.5283 1886.5873 539.5182" style="fill:#29abe2;"/><polygon points="126.2114 417.781 0 661.2553 796.5363 542.7122 126.2114 417.781" style="fill:#29abe2;"/><polygon points="126.2114 417.781 1364.5163 521.5722 1740.8702 316.8736 1636.364 22.4279 1991.4924 379.3168 1336.9007 704.1033 126.2114 417.781" style="fill:#0071bc;"/></g><g id="d"><polygon points="1344.0956 115.69 1344.0956 198.4213 1480.9725 198.4213 1480.9725 526.2645 1586.0016 526.2645 1586.0016 198.4213 1722.8534 198.4213 1722.8534 115.69 1344.0956 115.69" style="fill:#333; stroke:#fff; stroke-miterlimit:10; stroke-width:6.09px;"/><path d="M1207.4994,368.8364c-19.0671,42.8346-62.8779,72.8114-113.9,72.8114-68.5328,0-124.0897-54.066-124.0897-120.7602s55.5569-120.7598,124.0897-120.7598c48.6962,0,90.8167,27.311,111.1344,67.0395h106.6688c-22.6199-89.2684-117.265-151.4772-212.4756-151.4772h-8.4389c-113.3811,0-221.9816,91.9133-221.9816,205.2945v.0004c0,113.3809,108.6005,205.2947,221.9816,205.2947h8.4389c96.949,0,192.3381-66.9147,213.2182-157.4432h-104.6458Z" style="fill:#333; stroke:#fff; stroke-miterlimit:10; stroke-width:6.09px;"/><polygon points="731.5104 115.69 836.5562 136.8892 836.5562 526.2645 731.5104 526.2645 731.5104 115.69" style="fill:#333; stroke:#fff; stroke-miterlimit:10; stroke-width:6.09px;"/><path d="M699.56,526.2644l-108.5674-158.3624c52.8968-16.0548,91.4041-65.187,91.4041-123.3291h0c0-71.1802-57.7029-128.8829-128.8829-128.8829h-284.8718v82.7312h264.1644c26.3578,0,47.7251,21.3675,47.7251,47.7253h0c0,26.3578-21.3673,47.7253-47.7251,47.7253h-155.9381v-24.7553l-108.2262-14.3817v271.5295h108.2262v-152.8083h93.1068l104.04,152.8083h125.5449Z" style="fill:#333; stroke:#fff; stroke-miterlimit:10; stroke-width:6.09px;"/></g></g></svg>