<?xml version="1.0" encoding="UTF-8"?><svg id="a" xmlns="http://www.w3.org/2000/svg" viewBox="0 0 2048 2048"><g id="b"><line x1="0" y1="1710.0093" x2="2048" y2="1710.0088" style="fill:none; stroke:#fff; stroke-miterlimit:10; stroke-width:50px;"/></g><g id="c"><path d="M257.0242,752.9962c83.691,8.3903,168.1982,10.6966,252.0318,2.9262,70.6304-6.5466,140.6822-19.3161,208.4525-40.4083,59.195-18.4234,116.5658-42.7568,172.1421-70.1361,50.3532-24.8061,99.2959-52.3158,148.5127-79.2706,50.3787-27.5912,101.1817-54.4955,153.7395-77.7423,6.5713-2.9065,13.1682-5.7546,19.7881-8.5484l-10.7496,4.5364c31.4481-13.2414,63.4595-25.1358,96.0106-35.38,35.361-11.1285,71.324-20.3192,107.6784-27.5689,22.3811-4.4632,44.9045-8.1842,67.5195-11.245l-11.9628,1.6074c83.3685-11.1902,167.7577-13.1414,251.708-8.9286,27.9755,1.4039,55.912,3.5015,83.7957,6.1582,10.8329,1.0321,24.403-5.7634,31.8198-13.1802,7.8049-7.8049,13.6823-20.6103,13.1802-31.8198-.5213-11.6381-4.3442-23.7085-13.1802-31.8198-9.2598-8.5003-19.3231-11.9896-31.8198-13.1802-93.3393-8.893-187.5187-11.4505-281.0095-3.2672-76.7383,6.717-153.0512,19.9094-226.9178,41.9421-63.2948,18.8794-124.6703,44.0874-184.0977,72.8217-52.4545,25.3627-103.3378,53.7645-154.3945,81.7901-50.5804,27.7641-101.4909,55.0408-154.255,78.4728-6.6622,2.9586-13.352,5.8541-20.0673,8.69l10.7496-4.5364c-60.2861,25.3986-122.8104,45.181-186.9983,57.9498-19.9672,3.972-40.0608,7.2812-60.2371,9.9943l11.9628-1.6074c-73.173,9.7526-147.2291,11.3884-220.892,7.4021-24.2111-1.3102-48.385-3.2332-72.51-5.6518-10.7956-1.0823-24.4404,5.8008-31.8198,13.1802-7.8049,7.8049-13.6823,20.6103-13.1802,31.8198.5213,11.6381,4.3442,23.7085,13.1802,31.8198l9.1074,7.0364c7.0187,4.0706,14.5895,6.1186,22.7124,6.1438h0Z" style="fill:#fff;"/><path d="M257.0242,1068.9324c83.691,8.3903,168.1982,10.6966,252.0318,2.9262,70.6304-6.5466,140.6822-19.3161,208.4525-40.4083,59.195-18.4234,116.5658-42.7568,172.1421-70.1361,50.3532-24.8061,99.2959-52.3158,148.5127-79.2706,50.3787-27.5912,101.1817-54.4955,153.7395-77.7423,6.5713-2.9065,13.1682-5.7546,19.7881-8.5484l-10.7496,4.5364c31.4481-13.2414,63.4595-25.1358,96.0106-35.38,35.361-11.1285,71.324-20.3192,107.6784-27.5689,22.3811-4.4632,44.9045-8.1842,67.5195-11.245l-11.9628,1.6074c83.3685-11.1902,167.7577-13.1414,251.708-8.9286,27.9755,1.4039,55.912,3.5015,83.7957,6.1582,10.8329,1.0321,24.403-5.7634,31.8198-13.1802,7.8049-7.8049,13.6823-20.6103,13.1802-31.8198-.5213-11.6381-4.3442-23.7085-13.1802-31.8198-9.2598-8.5003-19.3231-11.9896-31.8198-13.1802-93.3393-8.893-187.5187-11.4505-281.0095-3.2672-76.7383,6.717-153.0512,19.9094-226.9178,41.9421-63.2948,18.8794-124.6703,44.0874-184.0977,72.8217-52.4545,25.3627-103.3378,53.7645-154.3945,81.7901-50.5804,27.7641-101.4909,55.0408-154.255,78.4728-6.6622,2.9586-13.352,5.8541-20.0673,8.69l10.7496-4.5364c-60.2861,25.3986-122.8104,45.181-186.9983,57.9498-19.9672,3.972-40.0608,7.2812-60.2371,9.9943l11.9628-1.6074c-73.173,9.7526-147.2291,11.3884-220.892,7.4021-24.2111-1.3102-48.385-3.2332-72.51-5.6518-10.7956-1.0823-24.4404,5.8008-31.8198,13.1802-7.8049,7.8049-13.6823,20.6103-13.1802,31.8198.5213,11.6381,4.3442,23.7085,13.1802,31.8198l9.1074,7.0364c7.0187,4.0706,14.5895,6.1186,22.7124,6.1438h0Z" style="fill:#fff;"/><path d="M257.0242,1384.8681c83.691,8.3903,168.1982,10.6966,252.0318,2.9262,70.6304-6.5466,140.6822-19.3161,208.4525-40.4083,59.195-18.4234,116.5658-42.7568,172.1421-70.1361,50.3532-24.8061,99.2959-52.3158,148.5127-79.2706,50.3787-27.5912,101.1817-54.4955,153.7395-77.7423,6.5713-2.9065,13.1682-5.7546,19.7881-8.5484l-10.7496,4.5364c31.4481-13.2414,63.4595-25.1358,96.0106-35.38,35.361-11.1285,71.324-20.3192,107.6784-27.5689,22.3811-4.4632,44.9045-8.1842,67.5195-11.245l-11.9628,1.6074c83.3685-11.1902,167.7577-13.1414,251.708-8.9286,27.9755,1.4039,55.912,3.5015,83.7957,6.1582,10.8329,1.0321,24.403-5.7634,31.8198-13.1802,7.8049-7.8049,13.6823-20.6103,13.1802-31.8198-.5213-11.6381-4.3442-23.7085-13.1802-31.8198-9.2598-8.5003-19.3231-11.9896-31.8198-13.1802-93.3393-8.893-187.5187-11.4505-281.0095-3.2672-76.7383,6.717-153.0512,19.9094-226.9178,41.9421-63.2948,18.8794-124.6703,44.0874-184.0977,72.8217-52.4545,25.3627-103.3378,53.7645-154.3945,81.7901-50.5804,27.7641-101.4909,55.0408-154.255,78.4728-6.6622,2.9586-13.352,5.8541-20.0673,8.69l10.7496-4.5364c-60.2861,25.3986-122.8104,45.181-186.9983,57.9498-19.9672,3.972-40.0608,7.2812-60.2371,9.9943,3.9876-.5358,7.9752-1.0716,11.9628-1.6074-73.173,9.7526-147.2291,11.3884-220.892,7.4021-24.2111-1.3102-48.385-3.2332-72.51-5.6518-10.7956-1.0823-24.4404,5.8008-31.8198,13.1802-7.8049,7.8049-13.6823,20.6103-13.1802,31.8198.5213,11.6381,4.3442,23.7085,13.1802,31.8198l9.1074,7.0364c7.0187,4.0706,14.5895,6.1186,22.7124,6.1438h0Z" style="fill:#fff;"/></g></svg>